<svg width="2370" height="662" viewBox="0 0 2370 662" fill="none" xmlns="http://www.w3.org/2000/svg">
<path d="M2103.23 662L2192.13 468.8H2180.23L2035.33 155.2H2070.33L2202.63 445L2336.33 155.2H2369.93L2136.13 662H2103.23Z" fill="black"/>
<path d="M1817.57 516.4C1792.37 516.4 1769.74 511.5 1749.67 501.7C1730.07 491.434 1714.67 475.8 1703.47 454.8C1692.27 433.334 1686.67 405.567 1686.67 371.5V155.2H1718.17V367.3C1718.17 408.367 1727.04 438.7 1744.77 458.3C1762.97 477.9 1789.11 487.7 1823.17 487.7C1846.04 487.7 1866.11 482.334 1883.37 471.6C1901.11 460.867 1914.87 445 1924.67 424C1934.94 402.534 1940.07 376.4 1940.07 345.6V155.2H1971.57V508H1944.27L1940.07 436.6C1928.41 463.667 1911.61 483.734 1889.67 496.8C1867.74 509.867 1843.71 516.4 1817.57 516.4Z" fill="black"/>
<path d="M1440.24 516.4C1408.04 516.4 1379.1 508.933 1353.44 494C1328.24 479.066 1308.17 457.833 1293.24 430.3C1278.77 402.3 1271.54 369.633 1271.54 332.3C1271.54 293.566 1279 260.433 1293.94 232.9C1308.87 205.366 1329.17 184.133 1354.84 169.2C1380.5 154.266 1409.44 146.8 1441.64 146.8C1474.3 146.8 1503.24 154.266 1528.44 169.2C1554.1 184.133 1574.17 205.366 1588.64 232.9C1603.57 260.433 1611.04 293.566 1611.04 332.3C1611.04 369.633 1603.57 402.3 1588.64 430.3C1573.7 457.833 1553.4 479.066 1527.74 494C1502.07 508.933 1472.9 516.4 1440.24 516.4ZM1440.24 488.4C1464.5 488.4 1486.9 482.567 1507.44 470.9C1528.44 459.233 1545.47 441.733 1558.54 418.4C1571.6 395.067 1578.14 366.133 1578.14 331.6C1578.14 297.066 1571.6 268.133 1558.54 244.8C1545.94 221.466 1529.14 204.2 1508.14 193C1487.6 181.333 1465.44 175.5 1441.64 175.5C1417.84 175.5 1395.44 181.333 1374.44 193C1353.44 204.666 1336.4 222.166 1323.34 245.5C1310.74 268.366 1304.44 297.066 1304.44 331.6C1304.44 366.133 1310.74 395.067 1323.34 418.4C1336.4 441.733 1353.2 459.233 1373.74 470.9C1394.27 482.567 1416.44 488.4 1440.24 488.4Z" fill="black"/>
<path d="M891.934 508V18H1042.43C1077.43 18 1105.9 23.6 1127.83 34.8C1149.77 46 1165.87 60.9334 1176.13 79.6C1186.87 97.8 1192.23 118.1 1192.23 140.5C1192.23 166.167 1186.63 187.4 1175.43 204.2C1164.7 221 1150.7 233.833 1133.43 242.7C1116.17 251.567 1098.2 257.4 1079.53 260.2L1083.73 253.2C1104.27 253.667 1123.63 259.267 1141.83 270C1160.03 280.733 1174.73 295.2 1185.93 313.4C1197.6 331.133 1203.43 351.433 1203.43 374.3C1203.43 398.1 1198.07 420.267 1187.33 440.8C1176.6 460.867 1159.8 477.2 1136.93 489.8C1114.07 501.933 1083.97 508 1046.63 508H891.934ZM923.434 480H1048.03C1086.77 480 1116.87 470.667 1138.33 452C1159.8 433.333 1170.53 407.2 1170.53 373.6C1170.53 342.333 1159.1 317.133 1136.23 298C1113.83 278.4 1083.5 268.6 1045.23 268.6H923.434V480ZM923.434 241.3H1046.63C1082.57 241.3 1110.33 232.433 1129.93 214.7C1149.53 196.5 1159.33 172.467 1159.33 142.6C1159.33 114.133 1149.3 90.8 1129.23 72.6C1109.63 54.4 1081.4 45.3 1044.53 45.3H923.434V241.3Z" fill="black"/>
<path d="M747.542 508C725.142 508 705.775 504.5 689.442 497.5C673.109 490.5 660.509 478.833 651.642 462.5C642.775 446.167 638.342 424 638.342 396V214.7H577.442V155.2H638.342L646.742 67H708.342V155.2H808.442V214.7H708.342V396.7C708.342 416.767 712.542 430.533 720.942 438C729.342 445 743.809 448.5 764.342 448.5H804.942V508H747.542Z" fill="black"/>
<path d="M431.842 508V155.2H501.842V508H431.842ZM467.542 88.7C454.008 88.7 442.808 84.5 433.942 76.1C425.542 67.7 421.342 56.9666 421.342 43.9C421.342 31.3 425.542 21.0333 433.942 13.1C442.808 4.7 454.008 0.5 467.542 0.5C480.608 0.5 491.575 4.7 500.442 13.1C509.308 21.0333 513.742 31.3 513.742 43.9C513.742 56.9666 509.308 67.7 500.442 76.1C491.575 84.5 480.608 88.7 467.542 88.7Z" fill="black"/>
<path d="M0.461426 508V18H181.761C215.828 18 244.295 23.6 267.161 34.8C290.028 45.5333 307.061 60.4667 318.261 79.6C329.928 98.2667 335.761 119.5 335.761 143.3C335.761 168.033 330.395 188.8 319.661 205.6C308.928 222.4 294.695 235.467 276.961 244.8C259.695 253.667 241.028 258.8 220.961 260.2L230.761 253.2C252.228 253.667 271.828 259.5 289.561 270.7C307.295 281.433 321.295 295.9 331.561 314.1C341.828 332.3 346.961 352.367 346.961 374.3C346.961 399.5 340.895 422.367 328.761 442.9C316.628 462.967 298.661 478.833 274.861 490.5C251.061 502.167 221.895 508 187.361 508H0.461426ZM70.4614 449.9H178.261C209.061 449.9 232.861 442.9 249.661 428.9C266.928 414.433 275.561 394.133 275.561 368C275.561 342.333 266.695 321.8 248.961 306.4C231.695 291 207.661 283.3 176.861 283.3H70.4614V449.9ZM70.4614 229.4H174.061C203.461 229.4 225.861 222.633 241.261 209.1C256.661 195.1 264.361 175.967 264.361 151.7C264.361 128.367 256.661 109.933 241.261 96.4C225.861 82.4 202.761 75.4 171.961 75.4H70.4614V229.4Z" fill="black"/>
</svg>
