<svg width="2351" height="662" viewBox="0 0 2351 662" fill="none" xmlns="http://www.w3.org/2000/svg">
<path d="M0.373442 508V18H181.673C215.74 18 244.207 23.6 267.073 34.8C289.94 45.5333 306.973 60.4666 318.173 79.6C329.84 98.2666 335.673 119.5 335.673 143.3C335.673 168.033 330.307 188.8 319.573 205.6C308.84 222.4 294.607 235.467 276.873 244.8C259.607 253.667 240.94 258.8 220.873 260.2L230.673 253.2C252.14 253.667 271.74 259.5 289.473 270.7C307.207 281.433 321.207 295.9 331.473 314.1C341.74 332.3 346.873 352.367 346.873 374.3C346.873 399.5 340.807 422.367 328.673 442.9C316.54 462.967 298.573 478.833 274.773 490.5C250.973 502.167 221.807 508 187.273 508H0.373442ZM70.3734 449.9H178.173C208.973 449.9 232.773 442.9 249.573 428.9C266.84 414.433 275.473 394.133 275.473 368C275.473 342.333 266.607 321.8 248.873 306.4C231.607 291 207.573 283.3 176.773 283.3H70.3734V449.9ZM70.3734 229.4H173.973C203.373 229.4 225.773 222.633 241.173 209.1C256.573 195.1 264.273 175.967 264.273 151.7C264.273 128.367 256.573 109.933 241.173 96.4C225.773 82.4 202.673 75.4 171.873 75.4H70.3734V229.4ZM431.754 508V155.2H501.754V508H431.754ZM467.454 88.7C453.921 88.7 442.721 84.5 433.854 76.1C425.454 67.7 421.254 56.9666 421.254 43.9C421.254 31.3 425.454 21.0333 433.854 13.1C442.721 4.69998 453.921 0.499983 467.454 0.499983C480.521 0.499983 491.487 4.69998 500.354 13.1C509.221 21.0333 513.654 31.3 513.654 43.9C513.654 56.9666 509.221 67.7 500.354 76.1C491.487 84.5 480.521 88.7 467.454 88.7ZM747.454 508C725.054 508 705.687 504.5 689.354 497.5C673.021 490.5 660.421 478.833 651.554 462.5C642.687 446.167 638.254 424 638.254 396V214.7H577.354V155.2H638.254L646.654 67H708.254V155.2H808.354V214.7H708.254V396.7C708.254 416.767 712.454 430.533 720.854 438C729.254 445 743.721 448.5 764.254 448.5H804.854V508H747.454ZM891.845 508V18H1042.35C1077.35 18 1105.81 23.6 1127.75 34.8C1149.68 46 1165.78 60.9333 1176.05 79.6C1186.78 97.8 1192.15 118.1 1192.15 140.5C1192.15 166.167 1186.55 187.4 1175.35 204.2C1164.61 221 1150.61 233.833 1133.35 242.7C1116.08 251.567 1098.11 257.4 1079.45 260.2L1083.65 253.2C1104.18 253.667 1123.55 259.267 1141.75 270C1159.95 280.733 1174.65 295.2 1185.85 313.4C1197.51 331.133 1203.35 351.433 1203.35 374.3C1203.35 398.1 1197.98 420.267 1187.25 440.8C1176.51 460.867 1159.71 477.2 1136.85 489.8C1113.98 501.933 1083.88 508 1046.55 508H891.845ZM923.345 480H1047.95C1086.68 480 1116.78 470.667 1138.25 452C1159.71 433.333 1170.45 407.2 1170.45 373.6C1170.45 342.333 1159.01 317.133 1136.15 298C1113.75 278.4 1083.41 268.6 1045.15 268.6H923.345V480ZM923.345 241.3H1046.55C1082.48 241.3 1110.25 232.433 1129.85 214.7C1149.45 196.5 1159.25 172.467 1159.25 142.6C1159.25 114.133 1149.21 90.8 1129.15 72.6C1109.55 54.4 1081.31 45.3 1044.45 45.3H923.345V241.3ZM1410.75 516.4C1385.55 516.4 1362.91 511.5 1342.85 501.7C1323.25 491.433 1307.85 475.8 1296.65 454.8C1285.45 433.333 1279.85 405.567 1279.85 371.5V155.2H1311.35V367.3C1311.35 408.367 1320.21 438.7 1337.95 458.3C1356.15 477.9 1382.28 487.7 1416.35 487.7C1439.21 487.7 1459.28 482.333 1476.55 471.6C1494.28 460.867 1508.05 445 1517.85 424C1528.11 402.533 1533.25 376.4 1533.25 345.6V155.2H1564.75V508H1537.45L1533.25 436.6C1521.58 463.667 1504.78 483.733 1482.85 496.8C1460.91 509.867 1436.88 516.4 1410.75 516.4ZM1816.81 516.4C1784.61 516.4 1755.67 508.933 1730.01 494C1704.81 479.067 1684.74 457.833 1669.81 430.3C1655.34 402.3 1648.11 369.633 1648.11 332.3C1648.11 293.567 1655.57 260.433 1670.51 232.9C1685.44 205.367 1705.74 184.133 1731.41 169.2C1757.07 154.267 1786.01 146.8 1818.21 146.8C1850.87 146.8 1879.81 154.267 1905.01 169.2C1930.67 184.133 1950.74 205.367 1965.21 232.9C1980.14 260.433 1987.61 293.567 1987.61 332.3C1987.61 369.633 1980.14 402.3 1965.21 430.3C1950.27 457.833 1929.97 479.067 1904.31 494C1878.64 508.933 1849.47 516.4 1816.81 516.4ZM1816.81 488.4C1841.07 488.4 1863.47 482.567 1884.01 470.9C1905.01 459.233 1922.04 441.733 1935.11 418.4C1948.17 395.067 1954.71 366.133 1954.71 331.6C1954.71 297.067 1948.17 268.133 1935.11 244.8C1922.51 221.467 1905.71 204.2 1884.71 193C1864.17 181.333 1842.01 175.5 1818.21 175.5C1794.41 175.5 1772.01 181.333 1751.01 193C1730.01 204.667 1712.97 222.167 1699.91 245.5C1687.31 268.367 1681.01 297.067 1681.01 331.6C1681.01 366.133 1687.31 395.067 1699.91 418.4C1712.97 441.733 1729.77 459.233 1750.31 470.9C1770.84 482.567 1793.01 488.4 1816.81 488.4ZM2083.32 662L2172.22 468.8H2160.32L2015.42 155.2H2050.42L2182.72 445L2316.42 155.2H2350.02L2116.22 662H2083.32Z" fill="black"/>
</svg>
